<svg width="21" height="20" xmlns="http://www.w3.org/2000/svg"><g id="1" stroke="none" stroke-width="1" fill="none" fill-rule="evenodd"><g id="Artboard" transform="translate(-200 -598)" fill="#394758"><g id="Group-9" transform="translate(200.5 598.078)"><path d="M11.965 4.696c-1.158-.498-1.756 1.354-1.87 1.752-.114-.398-.714-2.25-1.87-1.752-1.297.557-1.695.876-1.695 3.582 0 2.705-.099 4.058 1.793 4.457 0 0-1.194 6.447 1.295 6.447h.953c2.491 0 1.295-6.447 1.295-6.447 1.892-.399 1.793-1.752 1.793-4.457 0-2.707-.398-3.026-1.694-3.582" id="Fill-134"/><path d="M9.999 3.98a1.991 1.991 0 1 0-.003-3.982A1.991 1.991 0 0 0 10 3.98" id="Fill-135"/><path d="M20.189 8.604c0-2.033-.3-2.271-1.272-2.69-.87-.373-1.319 1.017-1.404 1.316-.086-.299-.536-1.69-1.406-1.316-.973.419-1.272.657-1.272 2.69 0 2.032-.075 3.048 1.348 3.349 0 0-.899 4.84.971 4.84h.716c1.87 0 .973-4.84.973-4.84 1.42-.3 1.346-1.317 1.346-3.349" id="Fill-136"/><path d="M17.44 5.376a1.494 1.494 0 1 0 0-2.99 1.494 1.494 0 0 0 0 2.99" id="Fill-137"/><path d="M4.083 5.914c-.87-.373-1.32 1.017-1.406 1.316-.085-.299-.536-1.69-1.405-1.316C.3 6.333.001 6.57.001 8.604c0 2.032-.075 3.048 1.346 3.349 0 0-.898 4.84.972 4.84h.715c1.872 0 .974-4.84.974-4.84 1.421-.3 1.346-1.317 1.346-3.349 0-2.033-.299-2.271-1.271-2.69" id="Fill-138"/><path d="M2.605 5.376a1.495 1.495 0 1 0-.002-2.988 1.495 1.495 0 0 0 .002 2.988" id="Fill-139"/></g></g></g></svg>