<svg width="21" height="23" xmlns="http://www.w3.org/2000/svg"><g id="1" stroke="none" stroke-width="1" fill="none" fill-rule="evenodd"><g id="Artboard" transform="translate(-324 -596)" fill="#394758"><g id="Group-11" transform="translate(324.8 596.428)"><g id="Group-10"><path d="M19.804 18.553v3.825H0v-3.825c0-.698.153-2.807 2.181-4.132 2.03-1.323 3.68-1.68 3.68-1.68l2.161 5.696a.69.69 0 0 0 .691.661h.174l.321-4.901-.24-1.331h1.868l-.247 1.33.327 4.902h.168c.378 0 .684-.29.69-.66l2.167-5.697s1.651.357 3.681 1.68c2.022 1.325 2.182 3.434 2.182 4.132" id="Fill-130"/><path d="M10.858 2.91c-.167.32-.508.566-.886.596l-.059.123-.066-.123c-.4-.03-.749-.306-.902-.64l-.109.028.131-.4.276.313-.087.016c.117.224.371.34.655.363V2.093h-.276c-.014.023-.044.031-.087.031-.058 0-.117-.052-.117-.11a.12.12 0 0 1 .117-.115c.043 0 .072.013.087.028h.276v-.116a.319.319 0 0 1-.233-.306c0-.19.146-.333.32-.333a.326.326 0 0 1 .116.632v.123h.248a.15.15 0 0 1 .088-.028c.057 0 .109.05.109.115 0 .058-.052.11-.11.11-.037 0-.065-.008-.087-.03h-.248v1.092c.27-.022.51-.117.64-.335l-.086-.015.298-.298.102.414-.11-.042zm4.575-.604C13.447.073 9.898 0 9.898 0S6.357.073 4.364 2.306a.543.543 0 0 0-.103.501c.088.32.336.808 1.041 1.011 0 0-.175.341.268 1.63 0 0 .256.523.022.996-.233.465-.24 1.506.204 2.051.437.545.771 3.156 4.102 3.396 3.34-.24 3.665-2.851 4.11-3.396.443-.545.436-1.586.203-2.051-.233-.473.014-.997.014-.997.451-1.288.277-1.629.277-1.629.699-.203.953-.69 1.04-1.01a.528.528 0 0 0-.109-.502z" id="Fill-132"/></g></g></g></g></svg>