<svg width="32" height="17" xmlns="http://www.w3.org/2000/svg"><g id="1" stroke="none" stroke-width="1" fill="none" fill-rule="evenodd"><g id="Artboard" transform="translate(-85 -599)" fill="#394758"><g id="Group" transform="translate(85 599.728)"><path d="M2.435 10.076c.65 0 .951-.103 1.299-.22a4.49 4.49 0 0 1 1.64-.273c.828 0 1.266.144 1.648.273.349.117.65.22 1.292.22.649 0 .95-.103 1.298-.22.383-.13.82-.273 1.648-.273.82 0 1.258.144 1.64.273.35.117.65.22 1.3.22.642 0 .95-.103 1.298-.22.383-.13.813-.273 1.64-.273.828 0 1.265.144 1.648.273.35.117.65.22 1.3.22.642 0 .942-.103 1.29-.22.384-.13.821-.273 1.649-.273.826 0 1.257.144 1.646.273.349.117.65.22 1.292.22.65 0 .95-.103 1.3-.22.176-.06.362-.122.588-.17l.17-.164 3.835-3.616-6.18-.013-1.155-.753-1.333-.717h-1.4l-1.669-1.04-1.777-.792s-.786-.076-1.88-.213a3.169 3.169 0 0 1-2.248-1.36C13.81.403 12.922 0 12.922 0h-1.635l.083.69-1.32 1.976c-1.654 0-1.961 1.688-1.961 1.688H6.926c-2.509.075-2.79 1.483-2.79 1.483l2.825-.082-.3.78-3.152 1.087h-.82c-.76 0-1.492.28-2.058.793L.049 9.61c.486.043.807.15 1.094.246.35.117.65.22 1.292.22" id="Fill-126"/><path d="M28.91 10.37a4.53 4.53 0 0 0-1.647.273c-.35.116-.65.219-1.3.219-.641 0-.943-.103-1.292-.22a4.536 4.536 0 0 0-1.646-.273c-.828 0-1.265.144-1.648.274-.349.116-.65.219-1.292.219-.65 0-.95-.103-1.299-.22-.383-.13-.82-.273-1.647-.273-.828 0-1.258.144-1.64.274-.35.116-.657.219-1.3.219-.649 0-.95-.103-1.298-.22a4.498 4.498 0 0 0-1.64-.273c-.828 0-1.266.144-1.649.274-.347.116-.649.219-1.298.219-.643 0-.943-.103-1.292-.22-.382-.13-.82-.273-1.648-.273-.82 0-1.257.144-1.64.274-.348.116-.65.219-1.3.219-.641 0-.942-.103-1.29-.22a4.144 4.144 0 0 0-1.142-.252v.875c.328.041.553.11.794.198.381.124.819.273 1.639.273.827 0 1.265-.15 1.648-.273.348-.123.649-.218 1.291-.218.65 0 .95.095 1.3.218.382.124.82.273 1.64.273.827 0 1.264-.15 1.647-.273.35-.123.65-.218 1.3-.218.641 0 .942.095 1.29.218.39.124.821.273 1.648.273.828 0 1.258-.15 1.648-.273.348-.123.65-.218 1.292-.218.65 0 .95.095 1.299.218.383.124.82.273 1.647.273.82 0 1.258-.15 1.64-.273.35-.123.65-.218 1.3-.218.642 0 .942.095 1.298.218.383.124.82.273 1.64.273.828 0 1.266-.15 1.647-.273.35-.123.657-.218 1.3-.218.649 0 .95.095 1.3.218.381.124.818.273 1.646.273v-.874c-.65 0-.95-.103-1.3-.22-.382-.13-.82-.273-1.647-.273" id="Fill-127"/><path id="Fill-128" d="M31.112 14.196H.744v-1.028H0v2.778h.744v-1.005h30.368v1.005h.744v-2.778h-.744v1.028"/></g></g></g></svg>